<?xml version="1.0" standalone="no"?>
<!DOCTYPE svg PUBLIC "-//W3C//DTD SVG 20010904//EN"
 "http://www.w3.org/TR/2001/REC-SVG-20010904/DTD/svg10.dtd">
<svg version="1.0" xmlns="http://www.w3.org/2000/svg"
 width="1024.000000pt" height="1024.000000pt" viewBox="0 0 1024.000000 1024.000000"
 preserveAspectRatio="xMidYMid meet">

<g transform="translate(0.000000,1024.000000) scale(0.100000,-0.100000)"
fill="#000000" stroke="none">
<path d="M5098 10068 c-3 -8 -38 -15 -99 -19 -52 -3 -110 -11 -129 -17 -19 -6
-55 -16 -80 -23 -25 -7 -49 -16 -54 -21 -6 -4 -23 -8 -38 -8 -15 0 -28 -4 -28
-10 0 -5 -6 -10 -14 -10 -12 0 -40 -15 -156 -81 -14 -8 -27 -16 -30 -19 -3 -3
-30 -24 -60 -46 -153 -114 -280 -274 -353 -444 -64 -148 -65 -149 -72 -190 -3
-19 -11 -64 -18 -100 -14 -82 -14 -316 1 -395 6 -33 14 -76 17 -95 7 -38 6
-36 61 -165 21 -49 46 -102 56 -117 10 -14 18 -30 18 -34 0 -4 26 -42 57 -83
142 -190 356 -349 553 -410 41 -13 86 -28 100 -33 104 -42 488 -42 590 0 14 5
45 16 70 23 25 7 49 16 55 21 5 4 17 8 26 8 32 0 205 101 289 169 65 53 149
138 196 201 42 56 114 167 114 175 0 3 16 39 35 81 19 41 35 84 35 94 0 10 5
22 10 25 6 3 10 21 10 40 0 19 4 36 9 39 33 20 33 502 0 522 -5 3 -9 18 -9 34
0 16 -5 42 -11 57 -7 15 -18 44 -26 63 -8 19 -23 52 -34 73 -10 22 -19 42 -19
47 0 15 -66 118 -120 186 -64 82 -134 151 -210 208 -30 22 -56 44 -58 49 -2 4
-8 7 -14 7 -5 0 -22 8 -36 18 -29 20 -110 62 -152 79 -14 6 -36 15 -50 21 -14
5 -45 15 -70 22 -25 6 -61 16 -80 22 -19 6 -77 14 -129 17 -61 4 -96 11 -99
19 -2 6 -14 12 -27 12 -13 0 -25 -6 -27 -12z"/>
<path d="M4797 7474 c-4 -4 -51 -11 -104 -15 -115 -9 -337 -45 -363 -59 -10
-6 -29 -10 -41 -10 -24 0 -82 -16 -111 -31 -10 -5 -27 -9 -38 -9 -11 0 -28 -4
-38 -9 -9 -5 -53 -24 -97 -41 -116 -46 -181 -78 -258 -127 -37 -24 -72 -43
-76 -43 -5 0 -11 -3 -13 -7 -1 -5 -25 -26 -53 -47 -107 -84 -241 -233 -293
-327 -11 -20 -25 -45 -31 -55 -32 -55 -81 -182 -81 -211 0 -12 -4 -24 -9 -27
-5 -3 -12 -25 -16 -48 -14 -77 -17 -2198 -4 -2243 46 -161 144 -286 274 -352
103 -52 119 -55 312 -60 l163 -4 2 1006 3 1007 37 34 c49 45 89 46 141 3 l37
-30 0 -2151 c0 -2387 -5 -2219 66 -2363 63 -127 150 -202 302 -259 37 -14 113
-16 617 -16 617 0 593 -2 700 52 118 59 218 181 259 317 7 25 12 689 16 2221
4 1822 7 2188 19 2205 18 29 67 55 100 55 17 0 43 -13 67 -34 l39 -34 3 -1006
2 -1006 145 0 c219 0 317 31 434 137 58 52 141 168 141 197 0 8 5 18 10 21 6
3 10 19 10 34 0 15 5 32 10 37 16 16 7 2184 -9 2249 -7 28 -15 65 -18 83 -3
18 -9 35 -14 38 -5 3 -9 11 -9 19 0 28 -120 258 -150 285 -3 3 -17 21 -31 40
-92 123 -299 284 -459 357 -42 18 -92 40 -150 63 -30 12 -63 26 -72 31 -10 5
-29 9 -42 9 -14 0 -28 5 -31 10 -3 6 -19 10 -35 10 -16 0 -31 4 -34 9 -3 5
-23 11 -43 15 -21 3 -99 17 -173 31 -74 15 -178 31 -230 36 -113 12 -773 23
-783 13z"/>
<path d="M3426 2803 c-4 -5 -38 -11 -74 -15 -117 -13 -157 -19 -177 -27 -11
-5 -69 -19 -130 -31 -60 -12 -130 -26 -155 -31 -25 -6 -62 -13 -83 -16 -20 -3
-40 -9 -43 -14 -3 -5 -20 -9 -39 -9 -19 0 -37 -4 -40 -10 -3 -5 -20 -10 -36
-10 -17 0 -42 -6 -57 -14 -15 -7 -52 -19 -82 -27 -30 -7 -59 -16 -65 -21 -5
-4 -21 -8 -36 -8 -15 0 -31 -4 -34 -10 -3 -5 -17 -10 -30 -10 -13 0 -27 -4
-30 -10 -3 -5 -15 -10 -26 -10 -10 0 -27 -4 -37 -9 -35 -17 -88 -39 -122 -51
-115 -40 -338 -146 -433 -207 -37 -24 -70 -43 -73 -43 -8 0 -98 -66 -138 -100
-51 -43 -128 -123 -169 -175 -43 -55 -117 -195 -117 -223 0 -10 -5 -23 -11
-29 -13 -13 -18 -199 -7 -248 45 -197 187 -381 418 -538 41 -29 84 -57 95 -63
11 -6 41 -23 67 -38 88 -49 162 -86 175 -86 7 0 13 -4 13 -10 0 -5 7 -10 15
-10 8 0 37 -9 63 -21 98 -43 117 -51 134 -60 10 -5 25 -9 33 -9 8 0 24 -5 35
-10 11 -5 29 -14 40 -20 11 -5 30 -10 43 -10 13 0 27 -4 32 -8 6 -5 39 -17 75
-27 36 -10 69 -22 75 -27 5 -4 21 -8 36 -8 15 0 31 -4 34 -10 3 -5 21 -10 40
-10 19 0 37 -5 40 -10 3 -6 17 -10 30 -10 13 0 34 -4 47 -9 33 -12 161 -44
251 -62 26 -5 71 -14 100 -19 67 -14 135 -26 222 -39 39 -7 108 -18 155 -27
47 -8 112 -17 145 -20 33 -3 69 -9 80 -14 11 -5 58 -12 105 -14 47 -3 128 -10
180 -15 52 -6 156 -15 230 -21 74 -6 180 -14 235 -19 55 -4 199 -9 320 -10
245 -2 318 -7 323 -21 4 -12 112 -13 112 -1 0 13 108 21 335 22 116 1 255 6
310 10 55 5 163 13 240 19 77 6 183 16 235 21 52 5 131 12 175 15 44 2 89 9
100 14 11 5 47 11 80 13 33 2 101 12 150 21 50 10 117 22 150 26 69 11 145 24
225 40 30 6 75 14 100 17 25 3 49 9 55 14 5 5 20 9 33 9 13 0 47 7 76 16 91
29 112 34 134 34 11 0 24 5 27 10 3 6 21 10 40 10 19 0 37 4 40 10 3 5 17 10
31 10 13 0 32 4 42 9 9 6 71 27 137 47 66 21 124 41 130 46 5 4 17 8 27 8 10
0 26 4 36 9 47 24 132 61 140 61 9 0 27 8 122 55 317 156 556 352 647 530 52
100 83 209 83 289 0 109 -69 293 -147 391 -75 95 -221 226 -304 273 -19 10
-59 35 -89 54 -64 40 -270 141 -365 178 -11 4 -49 19 -85 33 -36 14 -83 31
-105 37 -22 7 -44 16 -50 21 -5 5 -19 9 -31 9 -13 0 -26 4 -29 10 -3 5 -17 10
-31 10 -13 0 -32 4 -42 9 -9 5 -37 14 -62 21 -25 7 -60 18 -78 26 -18 8 -46
14 -62 14 -16 0 -32 5 -35 10 -3 6 -21 10 -40 10 -19 0 -36 4 -39 9 -3 5 -23
11 -43 14 -21 3 -58 10 -83 16 -25 6 -97 21 -160 34 -63 13 -122 26 -130 30
-16 6 -76 14 -175 23 -33 3 -64 10 -70 15 -14 14 -172 11 -198 -3 -47 -27 -86
-78 -93 -124 -14 -92 10 -150 81 -200 29 -21 43 -24 170 -44 197 -31 288 -47
365 -66 36 -8 83 -18 105 -21 22 -3 44 -9 50 -14 5 -5 26 -9 46 -9 21 0 41 -4
44 -10 3 -5 19 -10 35 -10 16 0 39 -4 52 -9 13 -5 50 -17 83 -26 133 -36 201
-57 217 -66 10 -5 27 -9 37 -9 11 0 23 -4 26 -10 3 -5 15 -10 26 -10 10 0 27
-4 37 -9 15 -8 59 -26 127 -51 45 -17 74 -30 170 -76 55 -26 102 -50 105 -53
3 -4 15 -12 28 -18 12 -7 32 -19 44 -25 115 -65 262 -207 303 -293 21 -46 26
-68 23 -106 -12 -120 -149 -266 -373 -396 -51 -29 -247 -123 -310 -148 -38
-15 -78 -31 -87 -36 -10 -5 -26 -9 -36 -9 -10 0 -22 -3 -26 -7 -9 -10 -70 -32
-143 -52 -34 -9 -66 -20 -69 -24 -4 -4 -20 -7 -35 -7 -15 0 -31 -4 -34 -10 -3
-5 -16 -10 -27 -10 -12 0 -35 -4 -52 -9 -17 -5 -49 -14 -71 -20 -22 -5 -60
-15 -85 -22 -25 -6 -63 -16 -85 -21 -22 -5 -60 -14 -85 -19 -25 -6 -67 -13
-95 -16 -27 -3 -54 -9 -60 -14 -5 -5 -28 -9 -52 -9 -24 0 -51 -4 -61 -10 -16
-9 -224 -43 -377 -62 -254 -30 -357 -39 -635 -57 -80 -6 -199 -14 -265 -20
-155 -13 -885 -13 -1040 0 -66 6 -185 14 -265 20 -220 14 -376 27 -465 38 -44
6 -118 15 -165 20 -86 10 -353 53 -445 72 -27 6 -72 13 -100 16 -27 2 -54 9
-60 14 -5 5 -22 9 -39 9 -16 0 -43 4 -60 9 -29 9 -101 28 -201 52 -22 6 -54
15 -71 20 -17 5 -40 9 -52 9 -11 0 -24 5 -27 10 -3 6 -16 10 -28 10 -23 0
-220 63 -249 80 -10 6 -25 10 -33 10 -8 0 -23 4 -33 9 -9 5 -48 21 -87 37
-173 68 -379 178 -477 255 -92 72 -162 156 -196 232 -36 82 5 184 117 298 67
67 234 189 260 189 5 0 11 4 13 8 4 10 193 102 273 132 11 4 48 20 83 34 35
14 72 26 82 26 10 0 22 5 25 10 3 6 17 10 30 10 13 0 26 4 29 9 3 5 18 11 33
14 16 3 66 17 113 32 78 24 106 32 195 50 17 4 39 10 50 15 11 5 36 11 55 14
36 5 79 14 190 41 88 20 236 46 345 60 28 3 66 10 85 15 19 5 48 12 63 15 16
3 48 24 72 46 36 33 44 48 50 89 13 95 -18 166 -93 208 -24 13 -184 17 -196 5z"/>
</g>
</svg>
