<?xml version="1.0" standalone="no"?>
<!DOCTYPE svg PUBLIC "-//W3C//DTD SVG 20010904//EN"
 "http://www.w3.org/TR/2001/REC-SVG-20010904/DTD/svg10.dtd">
<svg version="1.0" xmlns="http://www.w3.org/2000/svg"
 width="1024.000000pt" height="1024.000000pt" viewBox="0 0 1024.000000 1024.000000"
 preserveAspectRatio="xMidYMid meet">

<g transform="translate(0.000000,1024.000000) scale(0.100000,-0.100000)"
fill="#000000" stroke="none">
<path d="M4785 9234 c-110 -14 -176 -24 -270 -43 -27 -6 -66 -13 -85 -16 -19
-4 -44 -10 -55 -15 -11 -4 -72 -24 -135 -44 -63 -20 -124 -41 -135 -45 -11 -5
-36 -16 -57 -25 -20 -9 -39 -16 -42 -16 -3 0 -43 -18 -88 -40 -46 -22 -88 -40
-95 -40 -6 0 -13 -3 -15 -7 -1 -5 -23 -18 -48 -31 -70 -35 -131 -71 -183 -108
-26 -19 -51 -34 -55 -34 -5 0 -17 -8 -28 -18 -10 -9 -50 -39 -89 -67 -38 -27
-72 -51 -75 -55 -3 -3 -48 -42 -100 -87 -128 -109 -269 -258 -391 -413 -49
-62 -149 -207 -149 -215 0 -3 -13 -25 -29 -48 -37 -55 -125 -219 -171 -322
-29 -64 -31 -70 -75 -190 -20 -55 -41 -108 -46 -117 -5 -10 -9 -31 -9 -47 0
-17 -4 -33 -10 -36 -5 -3 -10 -17 -10 -30 0 -13 -4 -34 -9 -47 -22 -59 -49
-189 -56 -278 -3 -30 -9 -71 -15 -90 -9 -34 -22 -232 -21 -335 2 -243 50 -578
112 -781 5 -17 9 -42 9 -57 0 -14 5 -29 10 -32 6 -3 10 -19 10 -35 0 -16 4
-31 9 -35 5 -3 12 -20 16 -38 9 -42 45 -157 56 -179 5 -10 9 -24 9 -32 0 -7 9
-38 21 -67 24 -62 39 -100 69 -184 25 -68 32 -86 53 -135 8 -19 27 -64 42
-100 36 -87 52 -125 82 -190 14 -30 33 -73 43 -95 22 -49 148 -313 162 -340 6
-11 39 -74 73 -140 77 -148 123 -234 164 -305 17 -30 39 -72 49 -92 9 -21 20
-38 24 -38 5 0 8 -4 8 -10 0 -5 21 -44 46 -87 26 -43 54 -91 64 -108 86 -150
201 -339 279 -460 14 -22 31 -49 37 -60 45 -81 548 -831 596 -890 5 -5 30 -39
55 -75 83 -116 354 -482 363 -490 4 -3 48 -58 99 -123 125 -158 177 -193 307
-204 71 -6 134 12 198 56 47 33 68 55 148 161 32 42 65 84 75 95 10 11 54 68
98 128 44 59 105 140 134 180 30 39 86 117 125 172 38 55 72 102 76 105 22 17
600 880 600 896 0 8 75 119 83 122 4 2 7 8 7 13 0 6 16 36 37 67 31 48 116
191 183 307 10 17 38 65 64 108 25 43 46 82 46 86 0 5 3 11 8 13 6 3 24 34 86
153 12 22 23 42 26 45 13 13 312 605 344 680 10 25 34 79 53 120 20 41 39 84
43 95 4 11 17 41 29 67 12 26 21 50 21 54 0 3 12 31 26 62 32 70 39 88 54 132
7 19 16 44 20 55 4 11 15 40 25 65 9 25 21 53 26 62 5 10 9 27 9 37 0 11 5 23
10 26 6 3 10 15 10 26 0 10 4 27 9 37 12 24 51 147 51 162 0 6 6 26 14 43 14
32 22 63 32 122 3 17 9 39 14 50 10 22 18 58 29 125 4 25 10 50 14 57 22 36
67 433 68 598 0 94 -16 330 -23 341 -5 7 -8 39 -9 73 -1 34 -6 64 -10 67 -5 3
-9 21 -9 41 0 32 -10 77 -41 179 -5 17 -9 40 -9 52 0 11 -4 24 -10 27 -5 3
-10 19 -10 36 0 16 -4 37 -9 47 -5 9 -26 62 -46 117 -50 136 -44 123 -120 280
-38 77 -88 171 -112 208 -23 37 -43 70 -43 73 0 8 -103 156 -149 214 -211 268
-460 498 -722 666 -72 46 -93 58 -189 112 -73 41 -193 98 -280 132 -30 12 -64
26 -75 31 -11 4 -72 25 -135 45 -63 20 -123 40 -132 45 -10 5 -33 9 -51 9 -18
0 -37 4 -42 9 -6 5 -28 11 -50 15 -22 3 -67 10 -100 16 -240 41 -615 52 -840
24z m665 -819 c52 -10 120 -24 150 -32 30 -8 71 -19 90 -23 90 -21 240 -81
366 -145 405 -209 722 -533 919 -940 72 -148 67 -138 109 -265 74 -229 97
-378 98 -635 1 -228 -13 -335 -69 -553 -13 -51 -28 -103 -32 -115 -5 -12 -24
-60 -42 -106 -122 -315 -349 -623 -626 -849 -239 -194 -566 -350 -868 -411
-33 -7 -69 -15 -80 -17 -11 -3 -92 -11 -180 -19 -205 -18 -396 -6 -600 37 -56
11 -209 55 -240 67 -11 5 -63 26 -115 47 -314 125 -646 379 -843 644 -26 36
-53 72 -60 80 -64 81 -174 286 -226 420 -18 47 -37 95 -42 107 -11 30 -53 194
-67 263 -28 143 -35 219 -34 400 1 262 23 409 98 640 42 127 37 116 109 265
227 472 631 843 1125 1032 157 61 379 112 550 127 98 9 418 -4 510 -19z"/>
<path d="M4940 7598 c-182 -37 -255 -60 -370 -116 -265 -128 -487 -369 -601
-652 -64 -160 -82 -261 -82 -460 0 -181 12 -258 63 -411 88 -259 292 -513 525
-652 68 -41 218 -110 265 -122 14 -3 41 -11 60 -16 209 -56 431 -56 640 0 19
5 46 13 60 16 41 11 60 19 163 69 142 70 197 109 325 231 111 106 212 256 283
420 40 94 74 246 84 376 9 115 0 162 -37 199 -24 25 -38 30 -76 30 -53 0 -112
-18 -192 -59 -124 -64 -174 -75 -315 -74 -115 0 -138 4 -199 27 -93 35 -144
66 -212 129 -130 119 -203 283 -204 456 0 98 19 175 77 299 18 39 33 79 33 86
0 8 4 17 9 21 5 3 13 34 16 69 8 77 -9 116 -59 134 -38 14 -191 14 -256 0z"/>
</g>
</svg>
