<svg id="Слой_1" data-name="Слой 1" width="647px" height="547px" xmlns="http://www.w3.org/2000/svg" xmlns:xlink="http://www.w3.org/1999/xlink" viewBox="0 0 2286.24 1595.57"><defs><style>.cls-1{fill:none;}.cls-2{fill:url(#Безымянный_градиент_94);}.cls-3{fill:url(#Безымянный_градиент_94-2);}.cls-4{fill:#65ace4;}.cls-5{fill:url(#Безымянный_градиент_12);}.cls-6{fill:#2b5dad;}.cls-7{fill:#0e3a82;}.cls-8{fill:url(#Безымянный_градиент_12-2);}.cls-9{fill:#0d4fb8;}.cls-10{fill:#ffc34e;}.cls-11{fill:url(#Безымянный_градиент_12-3);}.cls-12{fill:#0f2d5c;}.cls-13,.cls-23{fill:#2a66c6;}.cls-14{fill:#eb9c63;}.cls-15{fill:#f0b589;}.cls-16,.cls-23{opacity:0.5;}.cls-17{fill:#e86c1f;}.cls-18{fill:#f0a065;}.cls-19{fill:#1a4891;}.cls-20{fill:url(#Безымянный_градиент_12-4);}.cls-21{clip-path:url(#clip-path);}.cls-22{fill:url(#Безымянный_градиент_12-5);}.cls-24{fill:#79c3f0;}.cls-25{fill:#9cd499;}.cls-26{fill:#f37168;}.cls-27{fill:#d54a41;}.cls-28{fill:#255096;}.cls-29{fill:#f09959;}.cls-30{fill:#91d5ff;}.cls-31{fill:#b3e2ff;}.cls-32{fill:#e38540;}.cls-33{fill:#303c60;}.cls-34{fill:#fb8627;}.cls-35{fill:#de721b;}.cls-36{fill:#81cfff;}</style><linearGradient id="Безымянный_градиент_94" x1="1366.94" y1="503.06" x2="1989.06" y2="129.19" gradientUnits="userSpaceOnUse"><stop offset="0" stop-color="#6bbeff"/><stop offset="1" stop-color="#0c3aa1"/></linearGradient><linearGradient id="Безымянный_градиент_94-2" x1="1941.93" y1="226.75" x2="1913.89" y2="759.54" gradientTransform="translate(-168.15 477.66) rotate(-8.49)" xlink:href="#Безымянный_градиент_94"/><linearGradient id="Безымянный_градиент_12" x1="2019.14" y1="1837.32" x2="343.14" y2="1285.32" gradientUnits="userSpaceOnUse"><stop offset="0" stop-color="#8fd4ff"/><stop offset="1" stop-color="#1355bf"/></linearGradient><linearGradient id="Безымянный_градиент_12-2" x1="2335.4" y1="-16.41" x2="979.41" y2="763.58" xlink:href="#Безымянный_градиент_12"/><linearGradient id="Безымянный_градиент_12-3" x1="2197.48" y1="698.53" x2="1893.48" y2="1034.53" xlink:href="#Безымянный_градиент_12"/><linearGradient id="Безымянный_градиент_12-4" x1="1666.93" y1="278.3" x2="432.29" y2="1680.38" xlink:href="#Безымянный_градиент_12"/><clipPath id="clip-path" transform="translate(-331.5 -148.16)"><path class="cls-1" d="M1473.34,1460.47H902.58a23.23,23.23,0,0,1-23.1-20.76L757.11,341.77a23.23,23.23,0,0,1,23.1-25.71H1351a23.23,23.23,0,0,1,23.11,20.77l122.37,1097.93A23.24,23.24,0,0,1,1473.34,1460.47Z"/></clipPath><linearGradient id="Безымянный_градиент_12-5" x1="1666.93" y1="274.86" x2="432.29" y2="1676.94" xlink:href="#Безымянный_градиент_12"/></defs><title>4402</title><path class="cls-2" d="M1790.28,434.91a265.65,265.65,0,0,0,1.66-29.47c0-5.26-.18-10.48-.48-15.67L1742.75,374a214.2,214.2,0,0,0-17.25-58.36l32.3-39.74a262.55,262.55,0,0,0-25.59-37.19l-48.71,15.89a216.93,216.93,0,0,0-48.23-37.07l2.77-51.18a260.59,260.59,0,0,0-42.52-15.07l-30.08,41.51a216.09,216.09,0,0,0-60.82-1.59l-27.85-43.05A260.22,260.22,0,0,0,1433.5,161l.07,51.25a216.43,216.43,0,0,0-50.12,34.48l-47.8-18.44A263.92,263.92,0,0,0,1308.13,264l30.16,41.4A214.3,214.3,0,0,0,1318,362.79L1268.49,376a265.69,265.69,0,0,0-1.66,29.48c0,5.25.18,10.47.48,15.66L1316,436.86a214.2,214.2,0,0,0,17.25,58.36L1301,535a262.49,262.49,0,0,0,25.58,37.19l48.72-15.89a216.7,216.7,0,0,0,48.23,37.07l-2.78,51.18a260.7,260.7,0,0,0,42.53,15.07l30.08-41.51a216.09,216.09,0,0,0,60.82,1.59L1582,662.71a259.83,259.83,0,0,0,43.26-12.79l-.06-51.25a216.43,216.43,0,0,0,50.12-34.48l47.79,18.44a263.19,263.19,0,0,0,27.53-35.79l-30.16-41.4a214.3,214.3,0,0,0,20.33-57.36Zm-260.9,73.5a103,103,0,1,1,103-103A103,103,0,0,1,1529.38,508.41Z" transform="translate(-331.5 -148.16)"/><path class="cls-3" d="M1744.2,793.09a195.38,195.38,0,0,0,21.22,5.58c3.83.78,7.65,1.42,11.47,2l18.69-33.13a159.37,159.37,0,0,0,45.06-3.92L1864.79,793a196,196,0,0,0,30.88-13.12l-4.36-37.83a160.66,160.66,0,0,0,34.14-29.63l36.86,9.61a194.06,194.06,0,0,0,17.27-28.74l-25.77-28a160.82,160.82,0,0,0,10.17-44l35.48-13.9a193.85,193.85,0,0,0-2.9-33.41l-37.34-7.54a160.72,160.72,0,0,0-17.68-41.61l20.51-32.07a195.3,195.3,0,0,0-22-25.35l-34.62,15.83a159.16,159.16,0,0,0-38.76-23.3l-2.25-38a198.92,198.92,0,0,0-21.22-5.57q-5.74-1.17-11.48-2l-18.69,33.13a159.37,159.37,0,0,0-45.06,3.91L1743.84,422A195,195,0,0,0,1713,435.08l4.36,37.83a161.14,161.14,0,0,0-34.14,29.62l-36.86-9.6a193,193,0,0,0-17.27,28.74l25.77,28.05a160.75,160.75,0,0,0-7.54,25.81,162.54,162.54,0,0,0-2.63,18.24l-35.48,13.9a193.65,193.65,0,0,0,2.9,33.4l37.34,7.55a160.72,160.72,0,0,0,17.68,41.61l-20.51,32.07a195.31,195.31,0,0,0,22,25.34l34.62-15.83a158.88,158.88,0,0,0,38.76,23.31Zm-14.87-200.87a76.52,76.52,0,1,1,59.73,90.25A76.52,76.52,0,0,1,1729.33,592.22Z" transform="translate(-331.5 -148.16)"/><path class="cls-4" d="M2501,1343.78a4.23,4.23,0,0,1-3-1.21c-.26-.25-27-26.09-75.55-54.29a558,558,0,0,0-210.91-70.75,4.24,4.24,0,1,1,1-8.42,566.41,566.41,0,0,1,214.41,72c49.34,28.71,75.84,54.32,76.95,55.4a4.24,4.24,0,0,1-3,7.28Z" transform="translate(-331.5 -148.16)"/><path class="cls-4" d="M2242.81,939.75c-13.79,0-26-.48-36.55-1.21-50.51-3.48-75.56-13-76.6-13.43a4.24,4.24,0,1,1,3.07-7.91c.24.09,25.25,9.56,74.68,12.91,45.65,3.1,122.05,1.45,226.76-24a4.24,4.24,0,1,1,2,8.24C2354.29,934.26,2289.44,939.75,2242.81,939.75Z" transform="translate(-331.5 -148.16)"/><path class="cls-5" d="M2213.28,1584.5H1617c-15-2.93-29.26-13.37-33.75-25.71-5.33-14.6,4.87-26.54,22.66-26.54h341.46c17.79,0,28-11.94,22.67-26.54s-24.22-26.54-42-26.54H616.64c-17.78,0-28,11.95-22.66,26.54s24.22,26.54,42,26.54h130.3c17.78,0,36.68,11.94,42,26.54,4.5,12.34-2.1,22.78-15,25.71H397c-17.78,0-28,12-22.66,26.54s24.22,26.54,42,26.54h866.77c17.78,0,36.69,11.94,42,26.54s-4.88,26.53-22.67,26.53H930.81c-17.78,0-28,11.95-22.66,26.54s24.22,26.54,42,26.54h981.32c17.79,0,28-11.94,22.67-26.54s-24.23-26.54-42-26.54h-98.41c-17.78,0-36.69-11.94-42-26.53s4.88-26.54,22.67-26.54h438.23c17.79,0,28-11.94,22.67-26.54S2231.06,1584.5,2213.28,1584.5Z" transform="translate(-331.5 -148.16)"/><path class="cls-6" d="M2454.7,1487.8h-1595a12.85,12.85,0,0,1-12.81-12.8v-10.88a12.85,12.85,0,0,1,12.81-12.8H2443.82A23.74,23.74,0,0,1,2467.5,1475,12.84,12.84,0,0,1,2454.7,1487.8Z" transform="translate(-331.5 -148.16)"/><path class="cls-6" d="M1662.93,1550H340.63a9.12,9.12,0,1,1,0-18.24h1322.3a9.12,9.12,0,0,1,0,18.24Z" transform="translate(-331.5 -148.16)"/><path class="cls-7" d="M1827,1380.09l-1128.3,13.7a82.7,82.7,0,0,1-82.7-82.7V641.18a67.13,67.13,0,0,1,67.12-67.13H1795.58c24.94,0,31.45,6.52,31.45,31.45Z" transform="translate(-331.5 -148.16)"/><path class="cls-8" d="M331.91,425.89H1429.44a0,0,0,0,1,0,0v796.26a0,0,0,0,1,0,0H367.86a83.34,83.34,0,0,1-83.34-83.34V473.28A47.39,47.39,0,0,1,331.91,425.89Z"/><path class="cls-9" d="M1821.61,640.22a17.17,17.17,0,0,1,17.17-17.17h150.57c75.19,0,89.6-2.37,138.19,55l243.91,250.15A255.72,255.72,0,0,1,2432,1093.49V1211.7a89.7,89.7,0,0,1-89.9,89.7l-520.52-1.14Z" transform="translate(-331.5 -148.16)"/><path class="cls-7" d="M1840.73,1393.79c247.11,0,549.66-10,578.48-10s33.71-200.11,18.56-228.92c-24-45.63-55.38-21.48-61.78,37.56-6.38,58.75-14.41,90.5-14.41,90.5l-193.7-3.2-369.79-6.4Z" transform="translate(-331.5 -148.16)"/><path class="cls-10" d="M2432,1062.54c-8.89-70.77-60.49-103.07-123.64-102.87-32.39.11,45.9,62.05,76.33,125.23C2410.92,1139.33,2438.41,1113.3,2432,1062.54Z" transform="translate(-331.5 -148.16)"/><path class="cls-11" d="M1866.93,677.79s201.7-3.21,224.11,0,124.87,97.22,188.9,171.07l64,73.85s-275.34-10.81-280.14-21.38c-2.18-4.81-73.64-36.68-123.27-52.47s-43.22-6.19-64-14.19S1866.93,677.79,1866.93,677.79Z" transform="translate(-331.5 -148.16)"/><path class="cls-7" d="M2127.34,1390.56c9.81-19,15.25-41.64,15.25-68.22,0-105.39-85.43-190.82-190.82-190.82S1761,1217,1761,1322.34c0,28.1,6.07,51.8,17,71.45h62.8C1934.27,1393.79,2035.76,1392.35,2127.34,1390.56Z" transform="translate(-331.5 -148.16)"/><circle class="cls-12" cx="1951.77" cy="1323.89" r="152.17" transform="translate(-695.98 1619.71) rotate(-45)"/><circle class="cls-13" cx="1951.77" cy="1323.89" r="78.44" transform="translate(0.83 2890.24) rotate(-80.78)"/><path class="cls-14" d="M1092.55,1123H1486a4.12,4.12,0,0,1,4.12,4.12v217.11a1.14,1.14,0,0,1-1.14,1.14H1092.55a1.14,1.14,0,0,1-1.14-1.14V1124.13A1.14,1.14,0,0,1,1092.55,1123Z"/><rect class="cls-15" x="976.79" y="1122.99" width="398.69" height="222.36" rx="1.14"/><g class="cls-16"><rect class="cls-17" x="1315.22" y="1183.07" width="42.05" height="7.75" rx="1.14"/><path class="cls-17" d="M1657.25,1299.69l-4.85,4.85a1.14,1.14,0,0,0,.81,1.94h.13a1.14,1.14,0,0,1,1.14,1.14V1334a1.13,1.13,0,0,0,1.13,1.14h4.89a1.14,1.14,0,0,0,1.13-1.14v-26.35a1.14,1.14,0,0,1,1.14-1.14h.13a1.14,1.14,0,0,0,.81-1.94l-4.85-4.85A1.15,1.15,0,0,0,1657.25,1299.69Z" transform="translate(-331.5 -148.16)"/><path class="cls-17" d="M1677.23,1299.69l-4.85,4.85a1.14,1.14,0,0,0,.81,1.94h.13a1.14,1.14,0,0,1,1.14,1.14V1334a1.13,1.13,0,0,0,1.13,1.14h4.89a1.14,1.14,0,0,0,1.13-1.14v-26.35a1.14,1.14,0,0,1,1.14-1.14h.13a1.14,1.14,0,0,0,.81-1.94l-4.85-4.85A1.15,1.15,0,0,0,1677.23,1299.69Z" transform="translate(-331.5 -148.16)"/></g><rect class="cls-14" x="960.37" y="1122.99" width="398.69" height="222.36" rx="1.14"/><rect class="cls-15" x="845.75" y="1122.99" width="398.69" height="222.36" rx="1.14"/><g class="cls-16"><rect class="cls-17" x="1184.17" y="1183.07" width="42.05" height="7.75" rx="1.14"/><path class="cls-17" d="M1526.21,1299.69l-4.85,4.85a1.14,1.14,0,0,0,.8,1.94h.14a1.14,1.14,0,0,1,1.13,1.14V1334a1.14,1.14,0,0,0,1.14,1.14h4.88a1.14,1.14,0,0,0,1.14-1.14v-26.35a1.14,1.14,0,0,1,1.14-1.14h.13a1.14,1.14,0,0,0,.8-1.94l-4.85-4.85A1.13,1.13,0,0,0,1526.21,1299.69Z" transform="translate(-331.5 -148.16)"/><path class="cls-17" d="M1546.19,1299.69l-4.85,4.85a1.14,1.14,0,0,0,.8,1.94h.14a1.14,1.14,0,0,1,1.13,1.14V1334a1.14,1.14,0,0,0,1.14,1.14h4.88a1.14,1.14,0,0,0,1.14-1.14v-26.35a1.14,1.14,0,0,1,1.14-1.14h.13a1.14,1.14,0,0,0,.8-1.94l-4.85-4.85A1.13,1.13,0,0,0,1546.19,1299.69Z" transform="translate(-331.5 -148.16)"/></g><path class="cls-18" d="M1007.2,911.18h380.24a4.12,4.12,0,0,1,4.12,4.12V1125a1.14,1.14,0,0,1-1.14,1.14H1007.2a1.14,1.14,0,0,1-1.14-1.14V912.32A1.14,1.14,0,0,1,1007.2,911.18Z"/><rect class="cls-15" x="895.23" y="911.18" width="385.5" height="207.65" rx="1.12"/><g class="cls-16"><rect class="cls-17" x="1222.46" y="969.27" width="40.66" height="7.5" rx="1.14"/><path class="cls-17" d="M1564.12,1087l-4.6,4.6a1.14,1.14,0,0,0,.8,1.94,1.14,1.14,0,0,1,1.14,1.13V1120a1.14,1.14,0,0,0,1.14,1.14h4.64a1.14,1.14,0,0,0,1.14-1.14v-25.41a1.14,1.14,0,0,1,1.14-1.13,1.14,1.14,0,0,0,.8-1.94l-4.6-4.6A1.13,1.13,0,0,0,1564.12,1087Z" transform="translate(-331.5 -148.16)"/><path class="cls-17" d="M1583.44,1087l-4.6,4.6a1.14,1.14,0,0,0,.8,1.94,1.14,1.14,0,0,1,1.14,1.13V1120a1.14,1.14,0,0,0,1.14,1.14h4.64a1.14,1.14,0,0,0,1.14-1.14v-25.41a1.14,1.14,0,0,1,1.13-1.13,1.14,1.14,0,0,0,.81-1.94l-4.6-4.6A1.13,1.13,0,0,0,1583.44,1087Z" transform="translate(-331.5 -148.16)"/></g><path class="cls-19" d="M1515,1543H832.83a26.76,26.76,0,0,1-26.61-23.92L676,301.46a26.75,26.75,0,0,1,26.61-29.61h682.17a26.77,26.77,0,0,1,26.61,23.91l130.27,1217.61A26.76,26.76,0,0,1,1515,1543Z" transform="translate(-331.5 -148.16)"/><path class="cls-20" d="M1473.34,1463.91H902.58a23.23,23.23,0,0,1-23.1-20.77L757.11,345.21a23.23,23.23,0,0,1,23.1-25.71H1351a23.23,23.23,0,0,1,23.11,20.76L1496.45,1438.2A23.24,23.24,0,0,1,1473.34,1463.91Z" transform="translate(-331.5 -148.16)"/><path class="cls-12" d="M836.72,1543H812.66a17.86,17.86,0,0,1-17.75-15.92L659.47,293.54a19.56,19.56,0,0,1,19.45-21.69h20.64A19.55,19.55,0,0,1,719,289.27l135.48,1233.9A17.86,17.86,0,0,1,836.72,1543Z" transform="translate(-331.5 -148.16)"/><path class="cls-12" d="M1308.08,1508H1186.59a6.75,6.75,0,0,1,0-13.5h121.49a6.75,6.75,0,0,1,0,13.5Z" transform="translate(-331.5 -148.16)"/><path class="cls-12" d="M1169.44,304.58a8.67,8.67,0,1,1,8.67-8.67A8.69,8.69,0,0,1,1169.44,304.58Z" transform="translate(-331.5 -148.16)"/><path class="cls-12" d="M1203.44,304.58a8.67,8.67,0,1,1,8.67-8.67A8.69,8.69,0,0,1,1203.44,304.58Z" transform="translate(-331.5 -148.16)"/><path class="cls-12" d="M1115.44,304.58h-93.33a8.67,8.67,0,1,1,0-17.33h93.33a8.67,8.67,0,1,1,0,17.33Z" transform="translate(-331.5 -148.16)"/><g class="cls-21"><path class="cls-22" d="M1473.34,1460.47H902.58a23.23,23.23,0,0,1-23.1-20.76L757.11,341.77a23.23,23.23,0,0,1,23.1-25.71H1351a23.23,23.23,0,0,1,23.11,20.77l122.37,1097.93A23.24,23.24,0,0,1,1473.34,1460.47Z" transform="translate(-331.5 -148.16)"/><path class="cls-23" d="M953,1189.07c99.6,36.62,153.89,87.06,220.58,131.26s152,170.86,155.05,194.86-275.56,66-328.44-85S937.57,1183.39,953,1189.07Z" transform="translate(-331.5 -148.16)"/><path class="cls-24" d="M781.09,1049l-11.77-27.6c54.06-23.06,171.81-97.27,270.18-229.16,78.09-104.69,166.39-278.43,143.61-511.55l29.86-2.91c10.18,104.15,0,205.65-30.27,301.68C1157,661,1116.91,738.61,1063.55,810.15a865.39,865.39,0,0,1-152,157C866.72,1002.91,819.16,1032.73,781.09,1049Z" transform="translate(-331.5 -148.16)"/><path class="cls-24" d="M1434.86,1555.32a1786.16,1786.16,0,0,1-271-181.19,1763.25,1763.25,0,0,1-189-177.42c-98.53-107.41-145.35-186.06-147.3-189.36l25.84-15.25c.46.78,47.58,79.81,144.23,185,89.1,97,239.76,236.79,451.5,351.82Z" transform="translate(-331.5 -148.16)"/><path class="cls-24" d="M871.21,721.68c-55.05,0-108.62-21.37-150.83-60.19S652.29,571,647.48,516c-4.87-55.66,12.35-108,48.48-147.46,35.95-39.23,86.26-60.84,141.66-60.84,55,0,108.62,21.38,150.83,60.2s68.08,90.47,72.9,145.49c4.87,55.66-12.35,108-48.48,147.46C976.92,700.08,926.61,721.68,871.21,721.68Zm-33.59-384c-46.89,0-89.34,18.15-119.54,51.11-30.38,33.15-44.84,77.4-40.71,124.58,8.6,98.31,95.56,178.29,193.84,178.29,46.89,0,89.34-18.15,119.54-51.1,30.38-33.16,44.84-77.4,40.71-124.58C1022.86,417.69,935.9,337.7,837.62,337.7Z" transform="translate(-331.5 -148.16)"/><ellipse class="cls-25" cx="854.41" cy="514.69" rx="119.81" ry="130.76" transform="translate(-439.72 627.85) rotate(-46.25)"/><path class="cls-24" d="M1517.68,1064.54c-76.28-22.8-148.58-50.45-214.9-82.17-53.15-25.43-102.63-53.52-147-83.51-76.14-51.41-110.88-90.36-112.33-92l-.43-.49-.38-.52c-34.09-46.11-54.25-80-69.77-137.18l28.95-7.86c14.3,52.66,32.22,82.9,64.5,126.61,3.92,4.28,38.16,40.75,107.46,87.39,67.82,45.63,184,110.6,352.53,161Z" transform="translate(-331.5 -148.16)"/><polygon class="cls-13" points="918.03 562.74 833.43 690.34 767.9 644.19 852.5 516.59 918.03 562.74"/><polygon class="cls-13" points="785.05 746.24 682.11 859.05 622.98 804.68 725.92 691.87 785.05 746.24"/><polygon class="cls-13" points="691.88 645.69 576.62 746.03 523.04 686.25 638.3 585.92 691.88 645.69"/><polygon class="cls-13" points="557.62 762.57 442.36 862.9 388.78 803.13 504.04 702.79 557.62 762.57"/><polygon class="cls-13" points="652.16 1001.09 547.66 871.59 606.14 826.69 710.64 956.19 652.16 1001.09"/><polygon class="cls-13" points="806.56 1133.05 677.46 1027.8 723.13 970.02 852.23 1075.27 806.56 1133.05"/><polygon class="cls-13" points="889.12 899.37 753.14 803.6 793.91 742.11 929.89 837.87 889.12 899.37"/><polygon class="cls-13" points="1093.58 999.34 943.68 930.39 970.84 861.06 1120.74 930 1093.58 999.34"/><polygon class="cls-13" points="527.5 1152.21 503.5 993 579.8 988.14 603.81 1147.36 527.5 1152.21"/><polygon class="cls-13" points="556.22 1342.7 532.21 1183.48 608.52 1178.63 632.52 1337.85 556.22 1342.7"/><polygon class="cls-13" points="973.18 1268.89 844.08 1163.64 889.75 1105.86 1018.85 1211.11 973.18 1268.89"/><polygon class="cls-13" points="1131.53 1374.2 995.55 1278.44 1036.32 1216.94 1172.3 1312.71 1131.53 1374.2"/><polygon class="cls-13" points="970.19 379 931.83 529.98 856.9 505.12 895.25 354.15 970.19 379"/><polygon class="cls-13" points="987.29 193.06 972.34 350 895.5 336.18 910.44 179.24 987.29 193.06"/><path class="cls-23" d="M963.33,300.19c93.68,65,144.35,175,116.82,272s-56.37,144-27.75,140,95.64-166,105.1-250c8.44-75,9.13-170,9.13-170Z" transform="translate(-331.5 -148.16)"/><path class="cls-25" d="M1497,1199.7c-146.1-24.07-379.63-175.56-407.43-192.06s-61.29,29.32-50.09,54.41,305.66,253.52,404.4,302S1497,1199.7,1497,1199.7Z" transform="translate(-331.5 -148.16)"/><path class="cls-24" d="M1029.45,1567.58c-3.54-11.56-87-284.61-99.33-425l19.92-1.74c12.11,138.32,97.67,418.11,98.53,420.92Z" transform="translate(-331.5 -148.16)"/><path class="cls-24" d="M1139.54,1338.75l-10.07-17.29c15.79-9.2,33.94-38.25,53.94-86.34,18.53-44.55,36.43-99.58,53.73-152.8,15.15-46.56,29.45-90.55,43.54-125.83,1.63-6.66,14.39-58,36.68-123.78,22-64.87,58.06-157.52,105-230.43l16.81,10.82C1351.32,749.58,1300.46,959.76,1300,961.87l-.17.71-.27.68c-13.93,34.77-28.23,78.72-43.36,125.25-17.43,53.59-35.45,109-54.28,154.29C1179.55,1296.49,1159.74,1327,1139.54,1338.75Z" transform="translate(-331.5 -148.16)"/><path class="cls-24" d="M1378.57,999.77c0-3.8.56-95,87.53-253l17.52,9.64c-84.48,153.51-85,242.36-85,243.24Z" transform="translate(-331.5 -148.16)"/></g><path class="cls-26" d="M1369.84,1053.25c0,4.3-11.49,7.79-25.67,7.79s-25.66-3.49-25.66-7.79,11.49-7.79,25.66-7.79S1369.84,1049,1369.84,1053.25Z" transform="translate(-331.5 -148.16)"/><path class="cls-27" d="M1314.83,439.56c-101.18,3.8-183.32,82.07-183.32,183.31s198.76,400.35,198.76,400.35,15,13.38,30,0c41.85-70.53,137.83-315.59,137.83-400.35C1498.14,521.63,1473.27,433.6,1314.83,439.56Zm0,256.24a64.26,64.26,0,1,1,64.25-64.26A64.26,64.26,0,0,1,1314.83,695.8Z" transform="translate(-331.5 -148.16)"/><path class="cls-26" d="M1360.31,439.56c-101.24,0-183.32,82.07-183.32,183.31s183.32,400.35,183.32,400.35,183.32-299.1,183.32-400.35S1461.55,439.56,1360.31,439.56Zm0,256.24a64.26,64.26,0,1,1,64.25-64.26A64.25,64.25,0,0,1,1360.31,695.8Z" transform="translate(-331.5 -148.16)"/><path class="cls-12" d="M482.91,1496.6s-43.3,23.64-56.18,23-11.7,12.5,22.13,15,50.5,8.26,58.39.82,7-28.17,1.24-38S482.91,1496.6,482.91,1496.6Z" transform="translate(-331.5 -148.16)"/><path class="cls-12" d="M710.73,1485.92s-.19,37.44-12.36,44.42-27,16.51.32,18.36,35.47-10.49,44.9-23.11,19-22.26,7.46-32-11.52-18.2-13.85-18.36S710.73,1485.92,710.73,1485.92Z" transform="translate(-331.5 -148.16)"/><path class="cls-7" d="M572.8,1125.14c-14.77,219,133.13,381.54,133.13,381.54s38.47-10.7,40.58-24.6-54-118.33-49-192.89,15.16-224.84,15.16-224.84Z" transform="translate(-331.5 -148.16)"/><path class="cls-12" d="M712.7,1064.35s-7.25,107.57-12.53,185.84c-33.31,64.54-48.46,126.43-52.93,172.44-39.42-68.56-82.76-174.06-74.44-297.49Z" transform="translate(-331.5 -148.16)"/><path class="cls-7" d="M715.16,1027.07C696,1198,524.2,1517.08,513,1521s-46.48-6.51-43.3-17.52C545.49,1240.54,558,1032.86,558,1032.86Z" transform="translate(-331.5 -148.16)"/><path class="cls-28" d="M556.09,782.91s-8.91,7.24-19.06,1.48-46.6-35.39-45-41.91,19.6-6.9,19.6-6.9S564.11,783.13,556.09,782.91Z" transform="translate(-331.5 -148.16)"/><path class="cls-10" d="M546.07,781.21c7.26-.67-15.1-21.05-22.3-29.33a119.93,119.93,0,0,0-11.93-12.25s-13.32.71-13.49,3.28S534,778.26,534,778.26,542.8,781.51,546.07,781.21Z" transform="translate(-331.5 -148.16)"/><path class="cls-29" d="M590.15,818.13s-12.22-24.23-18.4-30.89-27.66-20.21-31-20.51c-5.77-.52,18.69,18.5,18.69,18.5s-5,22.29-2.46,30.66,34.45,21.44,34.45,21.44Z" transform="translate(-331.5 -148.16)"/><path class="cls-30" d="M614.13,844.31S593.88,809,588.68,811s-20.76,30.2-20.76,30.2,36.83,43.83,37.36,36.06S614.13,844.31,614.13,844.31Z" transform="translate(-331.5 -148.16)"/><path class="cls-29" d="M688.62,667.57s17.75,83.9,31,119.12,16.7,99.43,6,211.07,11.31,110-22.25,121.77-148.5-19.37-161.62-56.15,22.61-180.48,64.74-231.26c41.59-50.13,60-67.74,60.8-80.16s-10.63-66.26-10.63-66.26Z" transform="translate(-331.5 -148.16)"/><path class="cls-31" d="M541.78,1063.38c-13.13-36.77,22.61-180.48,64.74-231.26,19.37-23.34,33.7-39.63,43.57-51.63,19.19-9.77,40.25-18.65,60.19-23.3,3.16,11.28,6.35,21.61,9.32,29.5,13.23,35.22,16.7,99.43,6,211.07s11.31,110-22.25,121.77S554.9,1100.16,541.78,1063.38Z" transform="translate(-331.5 -148.16)"/><path class="cls-31" d="M725.12,743.37c0-6.42-85.15,20.79-86.08,27s-7.4,29-15.11,41,110,90,107.76,55.76S725,760.53,725.12,743.37Z" transform="translate(-331.5 -148.16)"/><path class="cls-32" d="M667.16,753.34c.07-.47.13-.93.16-1.38.84-12.43-10.63-66.26-10.63-66.26l31.93-18.13s4.12,19.48,9.87,43.6C687.08,738.89,677.54,748,667.16,753.34Z" transform="translate(-331.5 -148.16)"/><path class="cls-29" d="M600.18,702.1c4.48,29.71,23.3,51.89,47.06,47.74,17.42-3,45.39-25.24,39.3-60.78-5.08-29.62-27.46-50.88-51.31-47.28S595.69,672.39,600.18,702.1Z" transform="translate(-331.5 -148.16)"/><path class="cls-29" d="M560.8,890.9c-18.74-38.06-18.8-72.43-33.11-84.13-20.13-16.46-35.22-51.24-27.48-52S537,784.39,537,784.39s-7.32-11.58-5.33-12.37,16.83,11.59,18.35,25.14,27.36,77.1,51.19,98.5S579.54,929,560.8,890.9Z" transform="translate(-331.5 -148.16)"/><path class="cls-30" d="M704.43,807.87c37,11.89,12.11,124.23-24.12,189.4s-91.85,3-113-15A74,74,0,0,1,550.85,963c9.85-39.69,25-81.95,42.18-111.25C625.69,895.8,649.75,790.28,704.43,807.87Z" transform="translate(-331.5 -148.16)"/><path class="cls-31" d="M693.68,799c47,7.92,13.11,124.16-24.66,169.46s-83.85-4.09-97.54-32.58-42-77.27-39.94-107.63c.38-5.7,12.11-6.08,26-4.1,13.1,1.87,67.05,87.75,67.05,87.75S652.64,792,693.68,799Z" transform="translate(-331.5 -148.16)"/><path class="cls-12" d="M589.86,640.08c-29.72,10.22-15,49.87.14,52.34s34.65-24.44,43.76-24.78-2.88,15.59,4.92,19.94,14.89,11.19,16.56,21.35,6.64,32.35-3.94,32.6-21.23-12-28.34-12.91a39.06,39.06,0,0,0-13.46.69S626,755.6,639.17,757.93,668.24,741.77,679.7,726s7.8-27,7.8-27,9.79,12.63,16.52,12.13-9.3-11.15-7.88-39.28-10-43.72-25.2-44.74-12.81-8.66-36.13-9.62C613.81,616.62,596.84,637.68,589.86,640.08Z" transform="translate(-331.5 -148.16)"/><path class="cls-29" d="M649.54,701.77c-1.17,7.2,2.13,13.73,7.37,14.58s10.42-4.32,11.58-11.53-2.14-13.73-7.37-14.58S650.7,694.56,649.54,701.77Z" transform="translate(-331.5 -148.16)"/><path class="cls-33" d="M2427.89,738.24c3.65-13-.63-17.46,1.44-35.57,2.17-19,4.27-35.6-13.92-45.4s-41.42-30.85-57-18.49-29.66,6.87-36.48,18-10.3,21.91-8.56,42.57C2314.54,713.56,2427.89,738.24,2427.89,738.24Z" transform="translate(-331.5 -148.16)"/><path class="cls-12" d="M2173.06,1441.94s-10,4.72-42.39-4.17c-25.43-7-52.77-11.73-35.46,5.08s46.68,27,58.38,27.77,27.83,13.49,35.48,7.69,10.92-32.9,10.12-32.84S2173.06,1441.94,2173.06,1441.94Z" transform="translate(-331.5 -148.16)"/><path class="cls-12" d="M2576.33,1407.18s49.59,30,40.25,37.19-24.06,19.83-35.32,32.54-52.52,17.13-53.93,10,24.8-18.63,29-25,1.92-40.89,1.92-40.89Z" transform="translate(-331.5 -148.16)"/><path class="cls-34" d="M2333.35,1088.8s74.48,204.15,90.35,224.06,134.82,128,134.82,128,30.91-18.83,24.21-31.48-67-119.26-94.52-149-11.35-141.6-44.28-224.9S2333.35,1088.8,2333.35,1088.8Z" transform="translate(-331.5 -148.16)"/><path class="cls-35" d="M2333.35,1088.8s77.65-136.66,110.58-53.36c12.11,30.62,18.53,67.36,21.26,100.14-27.23,62-41.74,127-47.53,166.86C2394.27,1255.78,2333.35,1088.8,2333.35,1088.8Z" transform="translate(-331.5 -148.16)"/><path class="cls-29" d="M2405,697.39s28.71,51.44,60,106.61c50.84,89.63-6.39,252.34-24.52,269.75s-112.38-13.56-118.33-26.57,2.15-101.36,30.45-157.1,42.7-93.07,35.07-117.75c-6.37-20.57-16-59.33-16-59.33Z" transform="translate(-331.5 -148.16)"/><path class="cls-32" d="M2405,697.39,2371.67,713s9.63,38.76,16,59.33a50.28,50.28,0,0,1,2,16.29c11.78-10.26,25.91-27.41,35.57-55.11C2413,711.78,2405,697.39,2405,697.39Z" transform="translate(-331.5 -148.16)"/><path class="cls-29" d="M2328.26,706.49c-7.46,25.28-3.34,53.42,12.51,61,11.53,5.53,50.45-2.52,56.26-31.19,5.48-27.06,4.5-52.54-14.49-60.78S2336.06,680,2328.26,706.49Z" transform="translate(-331.5 -148.16)"/><path class="cls-34" d="M2332.23,1018c-39,191.85-179,412.5-172.27,424.91,6.4,11.84,40.21,16.53,40.21,16.53s114.71-121.35,123-174.6,119.4-136.29,132-205.69,0-57.55,0-57.55Z" transform="translate(-331.5 -148.16)"/><path class="cls-36" d="M2379,812.67C2347.67,837.33,2268.9,858,2268.9,858h102.77Z" transform="translate(-331.5 -148.16)"/><path class="cls-36" d="M2460.75,789.09,2448,767.67s-7.12,7.34-29.67,17-36.66,9.33-36.66,9.33L2353,887.33,2446.16,842Z" transform="translate(-331.5 -148.16)"/><path class="cls-34" d="M2465.19,783c-32.86-12.34-64.86,34.32-76.19,57s-16.67,38.67-16.67,38.67L2353,873.33s-22.68,52-26.68,78-8.66,115-8.66,115,141-8.14,141.46-12.3,22.85-49.6,30.09-84.69C2501,912,2495.06,830.67,2482,808S2465.19,783,2465.19,783Z" transform="translate(-331.5 -148.16)"/><path class="cls-14" d="M2368.47,1062.53H2122.13c-.63,0-.63-222.36,0-222.36h246.34a1.14,1.14,0,0,1,1.13,1.13v220.09A1.14,1.14,0,0,1,2368.47,1062.53Z" transform="translate(-331.5 -148.16)"/><path class="cls-15" d="M2293.84,1062.53H2117c-.63,0-.63-222.36,0-222.36h176.84a1.14,1.14,0,0,1,1.14,1.13v220.09A1.14,1.14,0,0,1,2293.84,1062.53Z" transform="translate(-331.5 -148.16)"/><g class="cls-16"><rect class="cls-17" x="1903.21" y="752.09" width="42.05" height="7.75" rx="1.14"/><path class="cls-17" d="M2245.24,868.71l-4.85,4.85a1.14,1.14,0,0,0,.81,1.94h.13a1.13,1.13,0,0,1,1.14,1.13V903a1.12,1.12,0,0,0,1.13,1.13h4.89a1.12,1.12,0,0,0,1.13-1.13V876.63a1.13,1.13,0,0,1,1.14-1.13h.13a1.14,1.14,0,0,0,.81-1.94l-4.85-4.85A1.13,1.13,0,0,0,2245.24,868.71Z" transform="translate(-331.5 -148.16)"/><path class="cls-17" d="M2265.22,868.71l-4.85,4.85a1.14,1.14,0,0,0,.81,1.94h.13a1.13,1.13,0,0,1,1.14,1.13V903a1.13,1.13,0,0,0,1.13,1.13h4.89a1.12,1.12,0,0,0,1.13-1.13V876.63a1.13,1.13,0,0,1,1.14-1.13h.13a1.14,1.14,0,0,0,.81-1.94l-4.85-4.85A1.13,1.13,0,0,0,2265.22,868.71Z" transform="translate(-331.5 -148.16)"/></g><path class="cls-29" d="M2246.72,1060.49c-6.63-5.79-13-12.44-7.48-12.83,5.68-.4,18.51,6.81,28.3,12.95,7.75.11,12.94.26,12.94.26L2298,1082a399.15,399.15,0,0,1-41.82,3c-24.46.53-48.18-10-56.83-18.38C2194.38,1061.77,2222.3,1060.61,2246.72,1060.49Z" transform="translate(-331.5 -148.16)"/><path class="cls-36" d="M2448.44,791.06c37,11,43.62,63.19,18.95,129.42s-120,157.23-169,167.25c-25.84,5.29-29.53-26-29.53-26s89.66-88.26,105.56-122.18S2414.75,781.08,2448.44,791.06Z" transform="translate(-331.5 -148.16)"/><path class="cls-33" d="M2427.89,738.24c-12.89.43-34.21-7-35.51-12.68s1.59-15.48-2.63-11.9-6.75,26.34-10.56,29.1c-6.59,4.76-7.52-24.76-3.73-35.09,2.65-7.22-7.94-17.35-25-5.91-14.72,9.86-24.67,6.61-30.12,4.34s-2.32-19.48-2.32-19.48l41.21-31.26L2402,678.3Z" transform="translate(-331.5 -148.16)"/><path class="cls-29" d="M2388,719.36c-1.41,8.53,2.12,16.22,7.89,17.18s11.58-5.19,13-13.72-2.12-16.22-7.88-17.18S2389.42,710.83,2388,719.36Z" transform="translate(-331.5 -148.16)"/></svg>